<svg id="cloudstate-logo" xmlns="http://www.w3.org/2000/svg" viewBox="0 0 340 340"><title>cloudstate-icon-square-lockup-full-color</title><g id="icon"><path d="M169,208.18l4.06,2a62.28,62.28,0,0,1,34.44,55.7h0L169,246.67Z" fill="#107f9b"/><path d="M130.53,265.91,169,246.67V208.18l-4.07,2a62.29,62.29,0,0,0-34.44,55.7Z" fill="#15a9ce"/><path d="M207.54,265.91h0L169,246.67l-38.51,19.24h0A86.1,86.1,0,0,0,207.54,265.91Z" fill="#0b5567"/><path d="M171,131.82l-4.06-2a62.28,62.28,0,0,1-34.44-55.7h0L171,93.33Z" fill="#107f9b"/><path d="M209.47,74.09,171,93.33v38.49l4.07-2a62.29,62.29,0,0,0,34.44-55.7Z" fill="#15a9ce"/><path d="M132.46,74.09h0L171,93.33l38.51-19.24h0A86.1,86.1,0,0,0,132.46,74.09Z" fill="#0b5567"/><path d="M135.24,151.33l-3.8,2.5a62.33,62.33,0,0,1-65.48,2h0l35.93-23.71Z" fill="#107f9b"/><path d="M104.47,89.13l-2.58,43,33.35,19.25.27-4.54a62.28,62.28,0,0,0-31-57.66Z" fill="#15a9ce"/><path d="M66,155.79h0l35.93-23.71,2.58-43h0A86.05,86.05,0,0,0,66,155.79Z" fill="#0b5567"/><path d="M204.76,188.67l3.8-2.5a62.33,62.33,0,0,1,65.48-2h0l-35.93,23.71Z" fill="#107f9b"/><path d="M235.53,250.87l2.58-43-33.35-19.25-.27,4.54a62.28,62.28,0,0,0,31,57.66Z" fill="#15a9ce"/><path d="M274,184.21h0l-35.93,23.71-2.58,43h0A86.05,86.05,0,0,0,274,184.21Z" fill="#0b5567"/><path d="M134.27,187l.27,4.53a62.27,62.27,0,0,1-31,57.67h0l-2.58-43Z" fill="#107f9b"/><path d="M65,182.54l35.93,23.71L134.27,187l-3.79-2.5a62.33,62.33,0,0,0-65.48-2Z" fill="#15a9ce"/><path d="M103.51,249.21h0l-2.58-43L65,182.54h0A86.06,86.06,0,0,0,103.51,249.21Z" fill="#0b5567"/><path d="M205.73,153l-.27-4.53a62.27,62.27,0,0,1,31-57.67h0l2.58,43Z" fill="#107f9b"/><path d="M275,157.46l-35.93-23.71L205.73,153l3.79,2.5a62.33,62.33,0,0,0,65.48,2Z" fill="#15a9ce"/><path d="M236.49,90.79h0l2.58,43L275,157.46h0A86.06,86.06,0,0,0,236.49,90.79Z" fill="#0b5567"/></g></svg>